<svg width="1920" height="1080" viewBox="0 0 1920 1080" xmlns="http://www.w3.org/2000/svg"><rect width="1920" height="1080" fill="#6f4725"/><path d="M 0,1080 C 0,1080 0,135 0,135 C 90.85128205128208,132.45897435897436 181.70256410256417,129.91794871794872 279,135 C 376.29743589743583,140.08205128205128 480.0410256410256,152.7871794871795 581,148 C 681.9589743589744,143.2128205128205 780.1333333333332,120.93333333333335 901,117 C 1021.8666666666668,113.06666666666665 1165.425641025641,127.47948717948717 1273,135 C 1380.574358974359,142.52051282051283 1452.1641025641024,143.14871794871794 1554,142 C 1655.8358974358976,140.85128205128206 1787.9179487179488,137.92564102564103 1920,135 C 1920,135 1920,1080 1920,1080 Z" fill="#ece7df" opacity="0.075"/><path d="M 0,1080 C 0,1080 0,270 0,270 C 127.37948717948717,279.4717948717949 254.75897435897434,288.94358974358977 348,278 C 441.24102564102566,267.05641025641023 500.34358974358986,235.6974358974359 601,228 C 701.6564102564101,220.3025641025641 843.8666666666666,236.2666666666667 949,241 C 1054.1333333333334,245.7333333333333 1122.1897435897436,239.23589743589744 1230,238 C 1337.8102564102564,236.76410256410256 1485.374358974359,240.7897435897436 1607,247 C 1728.625641025641,253.2102564102564 1824.3128205128205,261.6051282051282 1920,270 C 1920,270 1920,1080 1920,1080 Z" fill="#ece7df" opacity="0.15"/><path d="M 0,1080 C 0,1080 0,405 0,405 C 121.10512820512824,410.42820512820515 242.21025641025648,415.85641025641024 344,428 C 445.7897435897435,440.14358974358976 528.2641025641025,459.002564102564 632,453 C 735.7358974358975,446.997435897436 860.7333333333333,416.1333333333334 981,398 C 1101.2666666666667,379.8666666666666 1216.802564102564,374.46410256410263 1303,375 C 1389.197435897436,375.53589743589737 1446.0564102564101,382.0102564102564 1544,388 C 1641.9435897435899,393.9897435897436 1780.9717948717948,399.4948717948718 1920,405 C 1920,405 1920,1080 1920,1080 Z" fill="#ece7df" opacity="0.22499999999999998"/><path d="M 0,1080 C 0,1080 0,540 0,540 C 87.84871794871793,521.725641025641 175.69743589743587,503.4512820512821 269,508 C 362.30256410256413,512.5487179487179 461.0589743589744,539.9205128205127 591,551 C 720.9410256410256,562.0794871794873 882.0666666666666,556.8666666666667 994,558 C 1105.9333333333334,559.1333333333333 1168.674358974359,566.6128205128205 1255,573 C 1341.325641025641,579.3871794871795 1451.2358974358974,584.6820512820514 1566,579 C 1680.7641025641026,573.3179487179486 1800.3820512820512,556.6589743589743 1920,540 C 1920,540 1920,1080 1920,1080 Z" fill="#ece7df" opacity="0.3"/><path d="M 0,1080 C 0,1080 0,675 0,675 C 116.61794871794868,664.3076923076924 233.23589743589736,653.6153846153846 337,665 C 440.76410256410264,676.3846153846154 531.674358974359,709.8461538461538 629,722 C 726.325641025641,734.1538461538462 830.0666666666667,725 927,720 C 1023.9333333333333,715 1114.0589743589742,714.1538461538462 1231,696 C 1347.9410256410258,677.8461538461538 1491.697435897436,642.3846153846154 1611,636 C 1730.302564102564,629.6153846153846 1825.1512820512821,652.3076923076924 1920,675 C 1920,675 1920,1080 1920,1080 Z" fill="#ece7df" opacity="0.375"/><path d="M 0,1080 C 0,1080 0,810 0,810 C 79.12051282051283,817.2025641025641 158.24102564102566,824.4051282051283 282,825 C 405.75897435897434,825.5948717948717 574.1564102564104,819.5820512820512 682,824 C 789.8435897435896,828.4179487179488 837.1333333333334,843.2666666666668 945,852 C 1052.8666666666666,860.7333333333332 1221.3102564102564,863.351282051282 1330,845 C 1438.6897435897436,826.648717948718 1487.625641025641,787.3282051282051 1576,778 C 1664.374358974359,768.6717948717949 1792.1871794871795,789.3358974358974 1920,810 C 1920,810 1920,1080 1920,1080 Z" fill="#ece7df" opacity="0.44999999999999996"/><path d="M 0,1080 C 0,1080 0,945 0,945 C 121.61538461538461,927.2230769230769 243.23076923076923,909.4461538461538 366,900 C 488.7692307692308,890.5538461538462 612.6923076923076,889.4384615384614 688,899 C 763.3076923076924,908.5615384615386 790,928.8000000000001 905,934 C 1020,939.1999999999999 1223.3076923076924,929.3615384615385 1338,925 C 1452.6923076923076,920.6384615384615 1478.7692307692307,921.7538461538461 1561,926 C 1643.2307692307693,930.2461538461539 1781.6153846153848,937.623076923077 1920,945 C 1920,945 1920,1080 1920,1080 Z" fill="#ece7df" opacity="0.525"/></svg>